<svg width="143" height="51" xmlns="http://www.w3.org/2000/svg" xmlns:xlink="http://www.w3.org/1999/xlink" xml:space="preserve" overflow="hidden"><g transform="translate(-24 -9)"><path d="M59.3752 28.9814 59.3752 28.7696C59.3752 24.5043 62.1152 21.4819 65.8579 21.4819 69.6007 21.4819 71.9875 23.897 71.9875 28.3883L71.9875 28.7978 60.3215 28.7978C60.3498 32.9643 62.3694 35.4218 66.0415 35.4218 69.7137 35.4218 70.3633 34.3201 70.9424 32.0745L71.8745 32.0745C71.2107 34.7297 68.9934 36.2409 66.0415 36.2409 63.0897 36.2409 59.3611 33.2326 59.3611 28.9814M71.0695 27.9928C70.9565 24.2077 68.9086 22.301 65.8721 22.301 62.8355 22.301 60.5899 24.5467 60.3639 27.9928L71.0695 27.9928Z" fill="#F1632F" transform="matrix(1.01222 0 0 1 24.0198 9)"/><path d="M75.0947 21.6937 76.0269 21.6937 76.0269 25.6342C76.846 23.4733 79.0352 21.4677 81.8599 21.4677 84.6846 21.4677 88.2154 24.2642 88.2154 28.7272L88.2154 28.9532C88.2154 33.5292 85.3907 36.2409 81.8599 36.2409 78.329 36.2409 76.7613 34.1648 76.0269 32.1875L76.0269 41.0006 75.0947 41.0006 75.0947 21.6937ZM87.2551 28.9814 87.2551 28.7696C87.2551 24.6032 84.7411 22.301 81.7751 22.301 78.8092 22.301 76.0269 24.6314 76.0269 28.7696L76.0269 28.9814C76.0269 33.0631 78.6821 35.4218 81.8034 35.4218 84.9247 35.4218 87.2551 33.0631 87.2551 28.9814" fill="#F1632F" transform="matrix(1.01222 0 0 1 24.0198 9)"/><path d="M90.0798 31.792 90.9837 31.792C91.252 33.8964 92.6502 35.4641 95.5314 35.4641 98.4126 35.4641 99.5001 34.0942 99.5001 32.2863 99.5001 30.4785 98.455 29.6029 95.5032 29.0521 92.1418 28.4448 90.5741 27.6538 90.5741 25.1681 90.5741 22.6824 92.6785 21.496 95.2631 21.496 97.8477 21.496 99.6979 22.5835 100.107 25.2246L99.2035 25.2246C98.8222 23.2191 97.4522 22.301 95.2348 22.301 93.0174 22.301 91.4497 23.445 91.4497 25.1822 91.4497 26.9194 92.622 27.6962 95.715 28.247 98.8646 28.8261 100.432 29.5888 100.432 32.244 100.432 34.8992 98.6245 36.2692 95.5314 36.2692 92.4384 36.2692 90.3057 34.4331 90.0798 31.8061" fill="#F1632F" transform="matrix(1.01222 0 0 1 24.0198 9)"/><path d="M103.299 17.838C103.299 17.4567 103.624 17.1318 104.034 17.1318 104.443 17.1318 104.74 17.4567 104.74 17.838 104.74 18.2193 104.443 18.5724 104.034 18.5724 103.624 18.5724 103.299 18.2193 103.299 17.838M103.568 21.6937 104.5 21.6937 104.5 36.015 103.568 36.015 103.568 21.6937Z" fill="#F1632F" transform="matrix(1.01222 0 0 1 24.0198 9)"/><path d="M108.779 14.8438 109.74 14.8438 109.74 36.015 108.779 36.015Z" fill="#F1632F" transform="matrix(1.01222 0 0 1 24.0198 9)"/><path d="M112.889 28.9814 112.889 28.7696C112.889 24.476 116.039 21.5101 119.767 21.5101 123.496 21.5101 126.561 24.3631 126.561 28.7413L126.561 28.9673C126.561 33.2891 123.468 36.2551 119.711 36.2551 115.954 36.2551 112.889 33.2185 112.889 28.9956M125.586 28.9532 125.586 28.7272C125.586 24.6738 122.903 22.2869 119.753 22.2869 116.604 22.2869 113.836 24.7444 113.836 28.7413L113.836 28.9532C113.836 32.8654 116.491 35.3935 119.725 35.3935 122.959 35.3935 125.586 32.936 125.586 28.9391" fill="#F1632F" transform="matrix(1.01222 0 0 1 24.0198 9)"/><path d="M129.64 21.6937 130.572 21.6937 130.572 24.815C131.236 23.0919 133.255 21.4819 135.911 21.4819 138.566 21.4819 141.037 23.1767 141.037 27.1736L141.037 36.015 140.105 36.015 140.105 27.1454C140.105 23.784 138.495 22.301 135.783 22.301 133.072 22.301 130.586 24.0523 130.586 27.3431L130.586 36.0291 129.654 36.0291 129.654 21.7078Z" fill="#F1632F" transform="matrix(1.01222 0 0 1 24.0198 9)"/><path d="M24.1795 13.3891C25.7189 12.9089 27.3855 12.6829 29.1933 12.7112 29.4475 10.9881 29.8006 9.46275 30.2243 8.13514 29.8147 8.23401 29.4193 8.36112 29.0379 8.5306 27.0465 9.37801 25.4364 11.0022 24.1795 13.3891Z" fill="#F1632F" transform="matrix(1.01222 0 0 1 24.0198 9)"/><path d="M28.6707 18.5865C28.7413 16.7222 28.8826 14.9992 29.0944 13.4456 27.2019 13.4173 25.4082 13.6716 23.7416 14.2789 23.1626 15.5641 22.6682 17.033 22.2728 18.7137 24.2642 18.4312 26.3968 18.3888 28.6707 18.5865Z" fill="#F1632F" transform="matrix(1.01222 0 0 1 24.0198 9)"/><path d="M20.6486 24.6879C20.8322 22.8377 21.0723 21.1429 21.3971 19.5893 19.5893 19.9283 17.8804 20.4791 16.2844 21.2983 15.5924 22.6259 14.9992 24.1088 14.5048 25.7613 16.468 25.2105 18.53 24.8574 20.6486 24.6879Z" fill="#F1632F" transform="matrix(1.01222 0 0 1 24.0198 9)"/><path d="M20.3237 31.0435C20.352 29.0379 20.4367 27.1595 20.5921 25.3941 18.4029 25.5777 16.2985 25.959 14.293 26.5663 13.841 28.1905 13.4738 29.9701 13.1914 31.8909 15.5076 31.4389 17.8945 31.1565 20.3379 31.0435Z" fill="#F1632F" transform="matrix(1.01222 0 0 1 24.0198 9)"/><path d="M50.8164 21.0299 50.8164 16.7081C43.5852 10.9598 36.4245 7.06176 30.9446 7.99391 30.4785 9.33564 30.0972 10.9175 29.8289 12.7394 35.563 13.0219 42.5824 15.7901 50.8164 21.0299Z" fill="#F1632F" transform="matrix(1.01222 0 0 1 24.0198 9)"/><path d="M16.8776 20.239C18.3323 19.5893 19.9 19.1232 21.5666 18.8266 21.9197 17.2731 22.3575 15.889 22.866 14.6461 22.7812 14.6885 22.6824 14.7167 22.5976 14.7591 20.2955 15.8748 18.4029 17.7109 16.8917 20.239Z" fill="#F1632F" transform="matrix(1.01222 0 0 1 24.0198 9)"/><path d="M35.2382 2.69759C33.5433 3.31903 32.2016 4.83024 31.2271 7.23124 36.1986 6.58156 42.7519 9.43451 50.8164 15.7618L50.8164 10.5926C44.8563 4.81612 39.221 1.22875 35.2382 2.68347Z" fill="#F1632F" transform="matrix(1.01222 0 0 1 24.0198 9)"/><path d="M50.8164 26.6793C43.6558 23.0354 36.1562 20.1825 29.2922 19.4198 29.2498 21.1146 29.2498 22.9366 29.3204 24.8856 36.4104 25.6765 43.8394 27.8798 50.8164 30.6198L50.8164 26.6793Z" fill="#F1632F" transform="matrix(1.01222 0 0 1 24.0198 9)"/><path d="M22.1033 19.4763C21.7643 21.044 21.5101 22.7671 21.3265 24.6314 23.6993 24.4902 26.1567 24.5467 28.6566 24.8009 28.6001 22.8518 28.6001 21.0299 28.6566 19.3351 26.3827 19.1232 24.1936 19.1515 22.1033 19.4763Z" fill="#F1632F" transform="matrix(1.01222 0 0 1 24.0198 9)"/><path d="M29.3204 18.6572C35.4783 19.321 42.6671 21.7078 50.8164 25.846L50.8164 21.9338C43.5569 17.2872 36.0997 13.8128 29.73 13.488 29.5181 15.0557 29.3769 16.7787 29.3204 18.6713Z" fill="#F1632F" transform="matrix(1.01222 0 0 1 24.0198 9)"/><path d="M50.8164 31.3683C43.8394 28.6001 36.4104 26.3827 29.3345 25.5777 29.4051 27.3714 29.504 29.2639 29.6594 31.2553 36.8059 31.8909 44.0512 33.5151 50.8164 35.5348L50.8164 31.3683Z" fill="#F1632F" transform="matrix(1.01222 0 0 1 24.0198 9)"/><path d="M29.0238 31.8909C26.3121 31.6649 23.6286 31.5943 20.9875 31.6932 20.9734 37.1166 21.3971 43.4439 22.2728 50.6893L31.2695 50.6893C30.1961 43.684 29.4475 37.4132 29.0238 31.8909Z" fill="#F1632F" transform="matrix(1.01222 0 0 1 24.0198 9)"/><path d="M21.2559 25.3376C21.1005 27.103 21.0158 28.9814 21.0017 31.0011 23.6145 30.9022 26.2839 30.987 28.9814 31.1988 28.8402 29.1933 28.7272 27.3007 28.6707 25.4929 26.1426 25.2387 23.6569 25.1681 21.27 25.3235Z" fill="#F1632F" transform="matrix(1.01222 0 0 1 24.0198 9)"/><path d="M9.20853 27.9081C10.6491 27.1171 12.1603 26.4957 13.7422 26.0014 14.1659 24.5043 14.6743 23.1343 15.2534 21.8914 12.8665 23.332 10.861 25.3376 9.22265 27.9081Z" fill="#F1632F" transform="matrix(1.01222 0 0 1 24.0198 9)"/><path d="M29.7159 31.9474C30.1537 37.4414 30.9022 43.684 31.9756 50.6893L50.8164 50.6893 50.8164 36.2551C44.0795 34.2354 36.8341 32.5971 29.7159 31.9474Z" fill="#F1632F" transform="matrix(1.01222 0 0 1 24.0198 9)"/><path d="M5.28219 35.111C3.58737 35.8878 1.94904 36.7917 0.409582 37.8651 0.395458 37.8651 0.381335 37.8934 0.353088 37.9075L0.353088 50.7034 3.07893 50.7034C3.24841 44.6727 3.96871 39.4752 5.26807 35.1252Z" fill="#F1632F" transform="matrix(1.01222 0 0 1 24.0198 9)"/><path d="M7.96566 28.6425C9.88646 25.2246 12.3722 22.6541 15.437 20.9593 15.5641 20.8887 15.6912 20.8322 15.8042 20.7616 17.4567 17.6544 19.6176 15.437 22.2869 14.1376 22.6117 13.9823 22.9366 13.841 23.2755 13.7139 24.6314 10.8186 26.4675 8.86957 28.7555 7.89504 29.3063 7.65494 29.8854 7.48546 30.4927 7.35835 31.5519 4.53365 33.049 2.75408 34.9839 2.03379 38.7549 0.649682 44.0512 3.20604 50.8023 9.61811L50.8023 0.2401 0.353088 0.2401 0.353088 36.3539C2.401 33.1338 4.92911 30.5633 7.95154 28.6566Z" fill="#F1632F" transform="matrix(1.01222 0 0 1 24.0198 9)"/><path d="M1.01689 36.6223C2.47161 35.6901 3.98283 34.8851 5.56466 34.2071 6.05899 32.6818 6.63805 31.2553 7.27361 29.9418 4.83024 31.679 2.73996 33.9106 1.01689 36.6081Z" fill="#F1632F" transform="matrix(1.01222 0 0 1 24.0198 9)"/><path d="M13.5021 26.8064C11.7366 27.3996 10.0418 28.1764 8.45998 29.1509 7.66907 30.5774 6.97702 32.1451 6.38383 33.8682 8.33287 33.0914 10.3667 32.4841 12.4711 32.0321 12.7394 30.1537 13.0784 28.4024 13.5021 26.8064Z" fill="#F1632F" transform="matrix(1.01222 0 0 1 24.0198 9)"/><path d="M20.3237 31.7214C17.8521 31.8485 15.4229 32.131 13.0925 32.6112 12.4287 37.6533 12.3298 43.684 12.7818 50.6893L21.5807 50.6893C20.7192 43.4863 20.2955 37.159 20.3237 31.7214Z" fill="#F1632F" transform="matrix(1.01222 0 0 1 24.0198 9)"/><path d="M12.0756 50.6893C11.6237 43.7829 11.7366 37.8086 12.3722 32.7665 10.1972 33.2467 8.1069 33.8964 6.10136 34.7297 4.71725 39.1221 3.94046 44.4467 3.77098 50.6752L12.0756 50.6752Z" fill="#F1632F" transform="matrix(1.01222 0 0 1 24.0198 9)"/></g></svg>